<svg width="114" height="31" viewBox="0 0 114 31" fill="none" xmlns="http://www.w3.org/2000/svg">
<path d="M107.533 26.0784C107.533 27.4039 108.146 28.3535 109.558 28.3535C110.302 28.3535 112.03 27.8985 112.03 25.3662H112.048V19.6685H114V29.956H112.123V28.492C111.472 29.4614 110.45 30.1934 109.038 30.1934C106.696 30.1934 105.6 28.4129 105.6 26.296V19.6685H107.533V26.0784Z" fill="#001B72"/>
<path d="M99.1572 29.9556V19.668H101.034V21.4486C101.74 20.0043 102.837 19.5493 104.026 19.5493H104.769V21.5079H103.97C102.335 21.5079 101.108 22.2399 101.108 24.7129V29.9556H99.1572Z" fill="#001B72"/>
<path d="M91.2717 26.0784C91.2717 27.4039 91.885 28.3535 93.2973 28.3535C94.0406 28.3535 95.7688 27.8985 95.7688 25.3662H95.7874V19.6685H97.7386V29.956H95.8617V28.492C95.2113 29.4614 94.1893 30.1934 92.777 30.1934C90.4355 30.1934 89.3391 28.4129 89.3391 26.296V19.6685H91.2717V26.0784Z" fill="#001B72"/>
<path d="M81.601 30.1932C77.4755 30.1932 75.2642 26.8102 75.2642 22.8337C75.2642 18.8571 77.4755 15.4741 81.7496 15.4741C85.2061 15.4741 87.3617 17.6306 87.8263 20.5586H85.7078C85.3547 18.7582 83.9238 17.4723 81.7496 17.4723C78.7578 17.4723 77.4198 19.9255 77.4198 22.8337C77.4198 25.7419 78.7578 28.1951 81.7496 28.1951C84.1468 28.1951 85.4662 26.6322 85.8936 24.3373H81.1921V22.4578H87.9749V29.9558H86.3211V27.4433C85.4848 29.1447 83.9982 30.1932 81.601 30.1932Z" fill="#001B72"/>
<path d="M72.072 29.9551V28.8472C71.2544 29.8562 70.2509 30.1925 69.0244 30.1925C66.9431 30.1925 65.4937 29.0847 65.4937 27.0469C65.4937 25.207 66.6458 24.3563 69.3032 23.8617L71.9977 23.3671V22.8923C71.9977 22.1208 71.626 21.5866 70.4181 21.5866C69.3961 21.5866 68.6899 22.0812 68.6713 22.9913H65.9582C65.9954 20.5776 67.928 19.4302 70.3996 19.4302C73.2614 19.4302 74.6551 20.637 74.6551 22.556V29.9551H72.072ZM68.2625 26.948C68.2625 27.68 68.7643 28.1548 69.7492 28.1548C70.9199 28.1548 71.9977 27.5415 71.9977 26.0182V25.1873L69.8421 25.6423C68.8014 25.8599 68.2625 26.1171 68.2625 26.948Z" fill="#E7002A"/>
<path d="M62.1487 29.9548V19.6672H64.8804V29.9548H62.1487ZM62.1487 18.1834V15.7104H64.8618V18.1834H62.1487Z" fill="#E7002A"/>
<path d="M61.0443 29.9548H58.4055V28.649C57.7737 29.6184 56.8074 30.1922 55.4508 30.1922C52.682 30.1922 51.1953 27.8775 51.1953 24.811C51.1953 21.7445 52.682 19.4298 55.4508 19.4298C56.7516 19.4298 57.6994 19.964 58.3312 20.874V15.7104H61.0443V29.9548ZM53.9642 24.811C53.9642 26.6311 54.6332 27.8379 56.157 27.8379C57.6994 27.8379 58.3684 26.6311 58.3684 24.811C58.3684 22.9909 57.6994 21.7841 56.157 21.7841C54.6332 21.7841 53.9642 22.9909 53.9642 24.811Z" fill="#E7002A"/>
<path d="M45.9733 30.1925C42.8513 30.1925 41.0674 27.8778 41.0674 24.8114C41.0674 21.7449 42.8513 19.4302 45.9733 19.4302C49.0952 19.4302 50.8792 21.6262 50.8792 25.1081V25.7016H43.7248C43.9477 27.1261 44.7282 27.9965 45.9733 27.9965C47.0511 27.9965 47.7201 27.5613 48.0918 26.7897H50.712C50.0987 28.8275 48.4077 30.1925 45.9733 30.1925ZM43.7619 23.7628H48.2033C47.9431 22.4373 47.1626 21.6262 45.9733 21.6262C44.784 21.6262 44.0035 22.4373 43.7619 23.7628Z" fill="#E7002A"/>
<path d="M31.6587 29.9548L28.3881 19.3704V29.9548H25.582V15.7104H29.9119L32.9037 25.9584L35.877 15.7104H40.1883V29.9548H37.4008V19.3704L34.1302 29.9548H31.6587Z" fill="#E7002A"/>
<path d="M0 0.766122C0.598452 0.766113 0.545796 0.766139 1.21907 0.766139H20.7242C21.3974 0.766139 21.1453 0.766132 21.9432 0.766179V29.066C21.9432 29.7419 21.3974 30.2898 20.7242 30.2898H1.21907C0.545796 30.2898 0 29.7419 0 29.066V0.766122Z" fill="#E7002A"/>
<path d="M14.9719 27.0038C12.4191 27.0038 11.0508 25.0375 11.0508 22.7263C11.0508 20.415 12.4191 18.4487 15.0639 18.4487C17.2026 18.4487 18.5365 19.7021 18.824 21.4039H17.5131C17.2946 20.3575 16.4092 19.6101 15.0639 19.6101C13.2126 19.6101 12.3846 21.036 12.3846 22.7263C12.3846 24.4166 13.2126 25.8425 15.0639 25.8425C16.5472 25.8425 17.3636 24.9341 17.6281 23.6002H14.7189V22.5078H18.916V26.8658H17.8926V25.4055C17.3751 26.3944 16.4552 27.0038 14.9719 27.0038Z" fill="white"/>
<path d="M6.03583 25.3089L4.39976 20.2357V25.3089H2.99609V18.4814H5.16202L6.65865 23.3934L8.14599 18.4814H10.3026V25.3089H8.90824V20.2357L7.27218 25.3089H6.03583Z" fill="white"/>
<path d="M2.99609 26.0264H10.3026V26.9846H2.99609V26.0264Z" fill="white"/>
</svg>
