<svg width="17" height="16" viewBox="0 0 17 16" fill="none" xmlns="http://www.w3.org/2000/svg">
<g id="briefcase">
<path id="Icon" d="M6.00033 5.33333H4.80033C4.05359 5.33333 3.68022 5.33333 3.395 5.47866C3.14412 5.60649 2.94015 5.81046 2.81232 6.06135C2.66699 6.34656 2.66699 6.71993 2.66699 7.46667V11.8667C2.66699 12.6134 2.66699 12.9868 2.81232 13.272C2.94015 13.5229 3.14412 13.7268 3.395 13.8547C3.68022 14 4.05359 14 4.80033 14H6.00033M6.00033 5.33333H11.3337M6.00033 5.33333V4.66667C6.00033 3.19391 7.19423 2 8.66699 2C10.1398 2 11.3337 3.19391 11.3337 4.66667V5.33333M6.00033 5.33333V14M11.3337 5.33333H12.5337C13.2804 5.33333 13.6538 5.33333 13.939 5.47866C14.1899 5.60649 14.3938 5.81046 14.5217 6.06135C14.667 6.34656 14.667 6.71993 14.667 7.46667V11.8667C14.667 12.6134 14.667 12.9868 14.5217 13.272C14.3938 13.5229 14.1899 13.7268 13.939 13.8547C13.6538 14 13.2804 14 12.5337 14H11.3337M11.3337 5.33333V14M6.00033 14H11.3337" stroke="#006BDE" stroke-width="1.2" stroke-linecap="round"/>
</g>
</svg>
