<svg width="17" height="17" viewBox="0 0 17 17" fill="none" xmlns="http://www.w3.org/2000/svg">
<g id="bullseye">
<path id="Icon" d="M8.66732 9.00017L10.6673 7.00017M16.0007 9.00017C16.0007 13.0503 12.7174 16.3335 8.66732 16.3335C4.61723 16.3335 1.33398 13.0503 1.33398 9.00017C1.33398 4.95008 4.61723 1.66684 8.66732 1.66684M13.334 9.00017C13.334 11.5775 11.2446 13.6668 8.66732 13.6668C6.08999 13.6668 4.00065 11.5775 4.00065 9.00017C4.00065 6.42284 6.08999 4.3335 8.66732 4.3335M10.6673 6.66684V3.74655C10.6673 3.65682 10.7035 3.57087 10.7677 3.50816L12.7677 1.55361C12.9787 1.34734 13.334 1.49688 13.334 1.79201V4.00017C13.334 4.18427 13.4832 4.3335 13.6673 4.3335H15.8755C16.1706 4.3335 16.3201 4.68875 16.1139 4.89982L14.1593 6.89981C14.0966 6.96399 14.0107 7.00017 13.9209 7.00017H11.0007C10.8166 7.00017 10.6673 6.85093 10.6673 6.66684Z" stroke="#FF0000" stroke-width="1.2" stroke-linecap="round"/>
</g>
</svg>
