<svg width="17" height="16" viewBox="0 0 17 16" fill="none" xmlns="http://www.w3.org/2000/svg">
<g id="message/circle and square">
<path id="Icon" d="M5.06466 9.66614L4.82408 10.2158H4.82408L5.06466 9.66614ZM4.31325 9.73639L4.67858 10.2123L4.67858 10.2123L4.31325 9.73639ZM3.20329 10.5884L2.83796 10.1124H2.83796L3.20329 10.5884ZM8.72832 11.8547L9.00072 11.3201L8.72832 11.8547ZM8.14563 11.272L8.68024 10.9996L8.68024 10.9996L8.14563 11.272ZM13.939 6.14532L13.6666 6.67993V6.67993L13.939 6.14532ZM14.5217 6.72801L13.987 7.00041L14.5217 6.72801ZM13.8136 13.36L14.1736 12.88H14.1736L13.8136 13.36ZM12.1425 12.1067L12.5025 11.6267L12.5025 11.6267L12.1425 12.1067ZM8.0131 10.6667L7.41321 10.6782L7.41345 10.6907L7.41422 10.7032L8.0131 10.6667ZM11.9531 12.0062L12.0683 11.4173L12.0683 11.4173L11.9531 12.0062ZM12.0343 12.0332L12.2955 11.4931L12.2955 11.4931L12.0343 12.0332ZM14.5961 13.5388L14.1237 13.1689L14.1237 13.1689L14.5961 13.5388ZM14.3406 13.6666L14.3281 13.0667H14.3281L14.3406 13.6666ZM10.067 6C10.067 7.87777 8.54476 9.4 6.66699 9.4V10.6C9.2075 10.6 11.267 8.54051 11.267 6H10.067ZM3.26699 6C3.26699 4.12223 4.78922 2.6 6.66699 2.6V1.4C4.12648 1.4 2.06699 3.45949 2.06699 6H3.26699ZM6.66699 2.6C8.54476 2.6 10.067 4.12223 10.067 6H11.267C11.267 3.45949 9.2075 1.4 6.66699 1.4V2.6ZM6.66699 9.4C6.18157 9.4 5.7214 9.29863 5.30523 9.11649L4.82408 10.2158C5.38909 10.4631 6.01284 10.6 6.66699 10.6V9.4ZM3.94793 9.26043L2.83796 10.1124L3.56861 11.0643L4.67858 10.2123L3.94793 9.26043ZM3.26699 10.3239V6H2.06699V10.3239H3.26699ZM2.83796 10.1124C3.01336 9.97777 3.26699 10.1028 3.26699 10.3239H2.06699C2.06699 11.0978 2.9547 11.5355 3.56861 11.0643L2.83796 10.1124ZM5.30523 9.11649C4.89306 8.93609 4.36408 8.941 3.94793 9.26043L4.67858 10.2123C4.68633 10.2064 4.7 10.1991 4.72497 10.1971C4.75155 10.195 4.78686 10.1995 4.82408 10.2158L5.30523 9.11649ZM10.667 6.6H12.5336V5.4H10.667V6.6ZM10.1336 11.4C9.75037 11.4 9.49901 11.3995 9.30677 11.3838C9.12154 11.3687 9.04464 11.3425 9.00072 11.3201L8.45593 12.3893C8.69722 12.5122 8.94961 12.5586 9.20905 12.5798C9.46149 12.6005 9.77018 12.6 10.1336 12.6V11.4ZM9.00072 11.3201C8.86273 11.2498 8.75055 11.1376 8.68024 10.9996L7.61103 11.5444C7.79639 11.9082 8.09215 12.2039 8.45593 12.3893L9.00072 11.3201ZM12.5336 6.6C12.9169 6.6 13.1683 6.60047 13.3605 6.61617C13.5457 6.63131 13.6226 6.65755 13.6666 6.67993L14.2114 5.61072C13.9701 5.48778 13.7177 5.44135 13.4582 5.42016C13.2058 5.39953 12.8971 5.4 12.5336 5.4V6.6ZM15.267 8.13333C15.267 7.76986 15.2674 7.46118 15.2468 7.20874C15.2256 6.9493 15.1792 6.69691 15.0563 6.45562L13.987 7.00041C14.0094 7.04433 14.0357 7.12123 14.0508 7.30646C14.0665 7.4987 14.067 7.75006 14.067 8.13333H15.267ZM13.6666 6.67993C13.8046 6.75024 13.9167 6.86242 13.987 7.00041L15.0563 6.45562C14.8709 6.09184 14.5751 5.79608 14.2114 5.61072L13.6666 6.67993ZM11.8225 11.4H10.1336V12.6H11.8225V11.4ZM14.1736 12.88L12.5025 11.6267L11.7825 12.5867L13.4536 13.84L14.1736 12.88ZM7.41422 10.7032C7.43202 10.9948 7.47493 11.2773 7.61103 11.5444L8.68024 10.9996C8.65499 10.95 8.62611 10.8615 8.61199 10.6301L7.41422 10.7032ZM8.61299 10.6552L8.60022 9.9885L7.40044 10.0115L7.41321 10.6782L8.61299 10.6552ZM11.8225 12.6C11.8397 12.6 11.8517 12.6 11.8618 12.6001C11.8718 12.6002 11.8764 12.6003 11.878 12.6003C11.8793 12.6004 11.8754 12.6003 11.8681 12.5995C11.8602 12.5987 11.8499 12.5974 11.838 12.595L12.0683 11.4173C11.9664 11.3974 11.8657 11.4 11.8225 11.4V12.6ZM12.5025 11.6267C12.468 11.6008 12.389 11.5383 12.2955 11.4931L11.7731 12.5734C11.7622 12.5681 11.7532 12.5631 11.7464 12.559C11.7401 12.5552 11.7368 12.5529 11.7379 12.5537C11.7393 12.5546 11.743 12.5572 11.7511 12.5632C11.7592 12.5692 11.7688 12.5764 11.7825 12.5867L12.5025 11.6267ZM11.838 12.595C11.8156 12.5906 11.7937 12.5834 11.7731 12.5734L12.2955 11.4931C12.2233 11.4582 12.147 11.4327 12.0683 11.4173L11.838 12.595ZM14.067 12.9333C14.067 13.0207 14.067 13.0903 14.066 13.1499C14.0649 13.2101 14.063 13.2495 14.0606 13.2764C14.058 13.3044 14.0562 13.3032 14.0611 13.2864C14.0668 13.2668 14.0832 13.2206 14.1237 13.1689L15.0685 13.9087C15.2157 13.7208 15.2445 13.5072 15.2556 13.3854C15.2676 13.2545 15.267 13.093 15.267 12.9333H14.067ZM13.4536 13.84C13.5814 13.9358 13.7102 14.0332 13.8221 14.1022C13.9262 14.1664 14.1144 14.2714 14.353 14.2665L14.3281 13.0667C14.3937 13.0654 14.4406 13.0799 14.4596 13.0871C14.476 13.0932 14.4758 13.0955 14.4519 13.0807C14.4289 13.0666 14.3963 13.0444 14.3476 13.0092C14.2992 12.9741 14.2435 12.9324 14.1736 12.88L13.4536 13.84ZM14.1237 13.1689C14.173 13.1059 14.2481 13.0684 14.3281 13.0667L14.353 14.2665C14.6331 14.2606 14.8958 14.1293 15.0685 13.9087L14.1237 13.1689ZM14.067 8.13333V12.9333H15.267V8.13333H14.067Z" fill="#FF8000"/>
</g>
</svg>
